<?xml version="1.0" encoding="UTF-8"?>
<svg version="1.1" xmlns="http://www.w3.org/2000/svg" width="512" height="512">
<path d="M0 0 C1.10988281 -0.02578125 2.21976563 -0.0515625 3.36328125 -0.078125 C10.25225668 0.60186787 14.39462333 4.51848342 19.04545593 9.21354675 C19.96264466 10.12159883 19.96264466 10.12159883 20.89836246 11.04799539 C22.93901054 13.07203598 24.96882272 15.10659845 26.9987793 17.14135742 C28.46215327 18.59738983 29.92614825 20.05279832 31.39071655 21.50762939 C35.36255695 25.45725531 39.32470421 29.41647035 43.2845037 33.37816405 C46.59212782 36.68590787 49.90408264 39.98929895 53.21593028 43.29281312 C61.0293545 51.08700372 68.83457731 58.88934224 76.63500977 66.6965332 C84.67995468 74.74812009 92.73954223 82.78483527 100.80632657 90.81453627 C107.73432643 97.71184188 114.65262385 104.61877622 121.56334621 111.53339273 C125.68975295 115.6618671 129.81984556 119.78647733 133.9595089 123.90166283 C137.85222623 127.77212049 141.73269497 131.65445412 145.60412216 135.54620361 C147.02561226 136.97110496 148.45136802 138.39176569 149.8816967 139.80779457 C151.83643564 141.74433557 153.77506305 143.69572479 155.710495 145.65153503 C156.27741505 146.20593724 156.8443351 146.76033944 157.42843455 147.33154172 C162.29069444 152.30391238 164.35914704 157.29482337 165.125 164.1875 C164.77145555 172.22508088 160.21015523 178.47364015 154.65943909 183.89279175 C154.05926702 184.49864707 153.45909495 185.10450239 152.84073585 185.72871697 C150.84502136 187.73725591 148.83208589 189.72754725 146.81860352 191.71826172 C145.37680906 193.16192168 143.93610207 194.6066684 142.49639893 196.05241394 C138.59658762 199.96217735 134.68142754 203.8562275 130.7630055 207.74732733 C126.66100876 211.82545066 122.57244608 215.91700137 118.48216248 220.00686646 C111.61491813 226.86948714 104.73824729 233.72254237 97.85522461 240.56933594 C89.897938 248.48485017 81.95282748 256.41241551 74.01475006 264.34719074 C65.55896821 272.79937334 57.09557335 281.24389801 48.62927508 289.68554544 C46.19113855 292.11745452 43.75429896 294.55065712 41.3176899 296.98409653 C37.49021483 300.80567081 33.65757781 304.62199389 29.82087708 308.43430519 C28.41349192 309.8342511 27.00778446 311.23588593 25.60387993 312.63932228 C23.68801767 314.55392641 21.76612749 316.46226749 19.84254456 318.36911011 C19.28786784 318.92620191 18.73319113 319.4832937 18.16170603 320.05726707 C12.72146728 325.42352126 8.49002097 327.9964986 0.9375 328.5 C-5.02845097 328.40001199 -9.61914794 326.71757179 -14.125 322.8125 C-18.50858425 317.67744416 -20.45762049 314.44267872 -20.625 307.5625 C-20.66238281 306.56863281 -20.69976562 305.57476562 -20.73828125 304.55078125 C-19.49398588 294.90463827 -12.63448686 289.01928021 -6.03613281 282.51953125 C-4.98050918 281.46503751 -3.92576872 280.40965902 -2.87184143 279.35346985 C-0.02361548 276.50410135 2.83672905 273.66719174 5.69948864 270.83243561 C8.69488629 267.86212832 11.67887877 264.88040714 14.66412354 261.89990234 C20.3119284 256.26450484 25.96984727 250.63937729 31.63151383 245.01791 C38.07954825 238.61466303 44.51616019 232.19998593 50.95185995 225.78434563 C64.18444515 212.59351402 77.43123531 199.4170323 90.6875 186.25 C90.1022982 186.24902319 89.5170964 186.24804638 88.91416121 186.24703997 C54.22584242 186.18876056 19.5375922 186.1149582 -15.1506485 186.02101372 C-19.31625235 186.00974563 -23.48185653 185.99860717 -27.64746094 185.98754883 C-28.47675336 185.98534514 -29.30604578 185.98314146 -30.16046828 185.980871 C-43.58602946 185.94550425 -57.01159058 185.9206366 -70.43718106 185.89965298 C-84.21436814 185.87788598 -97.99149481 185.844827 -111.7686305 185.80129844 C-120.26899928 185.77479723 -128.76929278 185.75709059 -137.26970083 185.75065396 C-143.09974602 185.74539539 -148.92969651 185.72916268 -154.75969094 185.70433434 C-158.12271227 185.69033518 -161.48541951 185.68276989 -164.84849167 185.68499184 C-168.49802921 185.68664184 -172.14704303 185.66996737 -175.79650879 185.64872742 C-176.85488968 185.65357499 -177.91327058 185.65842257 -179.00372362 185.66341704 C-186.62268217 185.59021975 -192.0808877 184.36297727 -198.5625 180.125 C-202.88013905 175.61110463 -205.46391867 170.50616592 -205.75 164.1875 C-204.8583515 156.16266353 -202.65601391 151.93178624 -196.4453125 146.6953125 C-192.52367258 144.03779094 -189.02516423 143.00090325 -184.30877972 142.98828697 C-183.31999032 142.98082148 -182.33120092 142.97335599 -181.3124482 142.96566427 C-179.69425981 142.96856637 -179.69425981 142.96856637 -178.04338074 142.9715271 C-176.31575523 142.9628385 -176.31575523 142.9628385 -174.5532282 142.95397437 C-171.36064876 142.9399132 -168.16819733 142.93474422 -164.97559178 142.93332577 C-161.53117757 142.92963006 -158.08681156 142.91447373 -154.64242554 142.90071106 C-148.67622063 142.87843977 -142.71003287 142.8634257 -136.74379539 142.85334396 C-128.11762953 142.83875699 -119.49152341 142.81322011 -110.8653926 142.78501268 C-96.86999435 142.73954503 -82.8745875 142.70293011 -68.87915039 142.671875 C-55.28408294 142.64168935 -41.68903654 142.60733901 -28.09399414 142.56738281 C-27.255962 142.56492126 -26.41792986 142.56245972 -25.55450281 142.55992357 C-21.35033175 142.54754897 -17.14616095 142.53509244 -12.94199026 142.52259517 C21.93447762 142.41902778 56.81097001 142.32982438 91.6875 142.25 C91.12850856 141.69377394 90.56951712 141.13754787 89.99358654 140.56446648 C76.38958518 127.02673206 62.79390677 113.48069085 49.20743084 99.92536736 C42.63690077 93.37030297 36.06358859 86.81807471 29.48364258 80.27246094 C23.74824957 74.5669793 18.01815808 68.85623526 12.2943576 63.13912308 C9.26376183 60.11243659 6.23058597 57.0884421 3.19104576 54.07073593 C0.32902907 51.22911171 -2.52583522 48.38049293 -5.37541962 45.52640343 C-6.42130175 44.48134525 -7.46974914 43.43884695 -8.52096367 42.39915276 C-9.95881636 40.97628605 -11.38649351 39.54315873 -12.81367493 38.10958862 C-13.61471303 37.3113159 -14.41575113 36.51304317 -15.24106312 35.69058037 C-20.242374 29.79800345 -20.80653163 24.78791917 -20.5859375 17.3046875 C-19.95675671 10.27583923 -16.36031565 7.05238729 -11.25 2.66796875 C-7.64808281 0.03188823 -4.33194248 0.05995768 0 0 Z " fill="#000000" transform="translate(276.3125,81.75)"/>
</svg>
